<svg xmlns="http://www.w3.org/2000/svg" viewBox="0 0 100 100">
  <!-- Shield background -->
  <path d="M50 5 L85 20 L85 45 Q85 70 50 95 Q15 70 15 45 L15 20 Z"
        fill="#3B82F6" stroke="#1E40AF" stroke-width="2"/>

  <!-- Network mesh lines -->
  <g stroke="#60A5FA" stroke-width="1.5" fill="none">
    <line x1="30" y1="35" x2="70" y2="35"/>
    <line x1="30" y1="50" x2="70" y2="50"/>
    <line x1="30" y1="65" x2="70" y2="65"/>
    <line x1="35" y1="30" x2="35" y2="70"/>
    <line x1="50" y1="30" x2="50" y2="70"/>
    <line x1="65" y1="30" x2="65" y2="70"/>
  </g>

  <!-- Network nodes -->
  <circle cx="35" cy="35" r="3" fill="#DBEAFE"/>
  <circle cx="50" cy="35" r="3" fill="#DBEAFE"/>
  <circle cx="65" cy="35" r="3" fill="#DBEAFE"/>
  <circle cx="35" cy="50" r="3" fill="#DBEAFE"/>
  <circle cx="50" cy="50" r="4" fill="#FFFFFF"/>
  <circle cx="65" cy="50" r="3" fill="#DBEAFE"/>
  <circle cx="35" cy="65" r="3" fill="#DBEAFE"/>
  <circle cx="50" cy="65" r="3" fill="#DBEAFE"/>
  <circle cx="65" cy="65" r="3" fill="#DBEAFE"/>
</svg>
